<?xml version="1.0" encoding="iso-8859-1"?>
<!-- Generator: Adobe Illustrator 18.0.0, SVG Export Plug-In . SVG Version: 6.00 Build 0)  -->
<!DOCTYPE svg PUBLIC "-//W3C//DTD SVG 1.1//EN" "http://www.w3.org/Graphics/SVG/1.1/DTD/svg11.dtd">
<svg version="1.1" xmlns="http://www.w3.org/2000/svg" xmlns:xlink="http://www.w3.org/1999/xlink" x="0px" y="0px"
	 viewBox="0 0 47.935 44.701" style="enable-background:new 0 0 47.935 44.701;" xml:space="preserve">
<g id="warning">
	<path style="fill:#FBBC50;" d="M44.931,44.701H3.004c-2.273,0-3.721-2.43-2.638-4.429L21.329,1.571
		c1.135-2.095,4.141-2.095,5.276,0l20.963,38.701C48.651,42.271,47.204,44.701,44.931,44.701z"/>
	<g style="opacity:0.1;">
		<path d="M44.931,42.701H3.004c-1.362,0-2.423-0.875-2.825-2.005c-0.686,1.902,0.711,4.005,2.825,4.005h41.926
			c2.115,0,3.512-2.102,2.825-4.005C47.354,41.826,46.293,42.701,44.931,42.701z"/>
	</g>
	<path style="fill:#F7F7F7;" d="M23.141,9.701h1.653c1.17,0,2.09,1,1.993,2.166l-0.667,18c-0.086,1.037-0.953,1.834-1.993,1.834
		h-0.319c-1.04,0-1.907-0.797-1.993-1.834l-0.667-18C21.051,10.701,21.971,9.701,23.141,9.701z"/>
	<circle style="fill:#F7F7F7;" cx="23.967" cy="36.701" r="2.5"/>
</g>
<g id="Layer_1">
</g>
</svg>
